<mxfile host="app.diagrams.net" agent="Mozilla/5.0 (X11; Linux x86_64) AppleWebKit/537.36 (KHTML, like Gecko) Chrome/131.0.0.0 Safari/537.36" version="26.0.11">
  <diagram name="Page-1" id="JJT9wpkPa50oZXYXSA4y">
    <mxGraphModel dx="1904" dy="1576" grid="1" gridSize="10" guides="1" tooltips="1" connect="1" arrows="1" fold="1" page="1" pageScale="1" pageWidth="850" pageHeight="1100" math="0" shadow="0">
      <root>
        <mxCell id="0" />
        <mxCell id="1" parent="0" />
        <mxCell id="pvuLGhbXDjjUD6PS2VlN-71" value="" style="rounded=0;whiteSpace=wrap;html=1;" vertex="1" parent="1">
          <mxGeometry x="-70" y="-30" width="740" height="490" as="geometry" />
        </mxCell>
        <mxCell id="pvuLGhbXDjjUD6PS2VlN-29" style="edgeStyle=orthogonalEdgeStyle;rounded=0;orthogonalLoop=1;jettySize=auto;html=1;entryX=0;entryY=0.25;entryDx=0;entryDy=0;" edge="1" parent="1" source="pvuLGhbXDjjUD6PS2VlN-1" target="pvuLGhbXDjjUD6PS2VlN-7">
          <mxGeometry relative="1" as="geometry" />
        </mxCell>
        <mxCell id="pvuLGhbXDjjUD6PS2VlN-1" value="" style="sketch=0;outlineConnect=0;fontColor=#232F3E;gradientColor=none;fillColor=#232F3D;strokeColor=none;dashed=0;verticalLabelPosition=bottom;verticalAlign=top;align=center;html=1;fontSize=12;fontStyle=0;aspect=fixed;pointerEvents=1;shape=mxgraph.aws4.user;" vertex="1" parent="1">
          <mxGeometry x="-11" y="137" width="30" height="30" as="geometry" />
        </mxCell>
        <mxCell id="pvuLGhbXDjjUD6PS2VlN-2" value="" style="sketch=0;outlineConnect=0;fontColor=#232F3E;gradientColor=none;fillColor=#232F3D;strokeColor=none;dashed=0;verticalLabelPosition=bottom;verticalAlign=top;align=center;html=1;fontSize=12;fontStyle=0;aspect=fixed;pointerEvents=1;shape=mxgraph.aws4.user;" vertex="1" parent="1">
          <mxGeometry x="-10" y="227" width="30" height="30" as="geometry" />
        </mxCell>
        <mxCell id="pvuLGhbXDjjUD6PS2VlN-3" value="" style="sketch=0;outlineConnect=0;fontColor=#232F3E;gradientColor=none;fillColor=#232F3D;strokeColor=none;dashed=0;verticalLabelPosition=bottom;verticalAlign=top;align=center;html=1;fontSize=12;fontStyle=0;aspect=fixed;pointerEvents=1;shape=mxgraph.aws4.user;" vertex="1" parent="1">
          <mxGeometry x="-10" y="312" width="30" height="30" as="geometry" />
        </mxCell>
        <mxCell id="pvuLGhbXDjjUD6PS2VlN-4" value="Cliente 1" style="text;html=1;align=center;verticalAlign=middle;whiteSpace=wrap;rounded=0;" vertex="1" parent="1">
          <mxGeometry x="-25" y="160" width="60" height="30" as="geometry" />
        </mxCell>
        <mxCell id="pvuLGhbXDjjUD6PS2VlN-5" value="Cliente 2" style="text;html=1;align=center;verticalAlign=middle;whiteSpace=wrap;rounded=0;" vertex="1" parent="1">
          <mxGeometry x="-25" y="251" width="60" height="30" as="geometry" />
        </mxCell>
        <mxCell id="pvuLGhbXDjjUD6PS2VlN-6" value="Cliente 3" style="text;html=1;align=center;verticalAlign=middle;whiteSpace=wrap;rounded=0;" vertex="1" parent="1">
          <mxGeometry x="-25" y="338" width="60" height="30" as="geometry" />
        </mxCell>
        <mxCell id="pvuLGhbXDjjUD6PS2VlN-7" value="" style="rounded=0;whiteSpace=wrap;html=1;strokeColor=light-dark(#000000,#FFFFFF);fillColor=light-dark(#FFFFFF,var(--ge-dark-color, #121212));fillStyle=auto;gradientColor=none;dashed=1;dashPattern=8 8;" vertex="1" parent="1">
          <mxGeometry x="95" y="70" width="265" height="330" as="geometry" />
        </mxCell>
        <mxCell id="pvuLGhbXDjjUD6PS2VlN-8" value="Controlador de Irrigação" style="rounded=0;whiteSpace=wrap;html=1;fillColor=light-dark(#E6FFCC,var(--ge-dark-color, #121212));" vertex="1" parent="1">
          <mxGeometry x="165" y="85" width="110" height="40" as="geometry" />
        </mxCell>
        <mxCell id="pvuLGhbXDjjUD6PS2VlN-9" value="Middleware" style="text;html=1;align=center;verticalAlign=middle;whiteSpace=wrap;rounded=0;" vertex="1" parent="1">
          <mxGeometry x="100" y="368" width="60" height="30" as="geometry" />
        </mxCell>
        <mxCell id="pvuLGhbXDjjUD6PS2VlN-10" value="Controlador de Refrigeração" style="rounded=0;whiteSpace=wrap;html=1;fillColor=light-dark(#E6FFCC,var(--ge-dark-color, #121212));" vertex="1" parent="1">
          <mxGeometry x="165" y="203.5" width="110" height="40" as="geometry" />
        </mxCell>
        <mxCell id="pvuLGhbXDjjUD6PS2VlN-11" value="Controlador de Iluminação" style="rounded=0;whiteSpace=wrap;html=1;fillColor=light-dark(#E6FFCC,var(--ge-dark-color, #121212));" vertex="1" parent="1">
          <mxGeometry x="165" y="302" width="110" height="40" as="geometry" />
        </mxCell>
        <mxCell id="pvuLGhbXDjjUD6PS2VlN-53" style="edgeStyle=orthogonalEdgeStyle;rounded=0;orthogonalLoop=1;jettySize=auto;html=1;entryX=0;entryY=0.5;entryDx=0;entryDy=0;strokeColor=light-dark(#4D9900,#FFFFFF);exitX=0;exitY=0.25;exitDx=0;exitDy=0;startArrow=classic;startFill=1;" edge="1" parent="1" source="pvuLGhbXDjjUD6PS2VlN-13" target="pvuLGhbXDjjUD6PS2VlN-11">
          <mxGeometry relative="1" as="geometry">
            <mxPoint x="130" y="-1" as="targetPoint" />
            <mxPoint x="380" as="sourcePoint" />
          </mxGeometry>
        </mxCell>
        <mxCell id="pvuLGhbXDjjUD6PS2VlN-13" value="" style="shape=image;verticalLabelPosition=bottom;labelBackgroundColor=default;verticalAlign=top;aspect=fixed;imageAspect=0;image=https://static-00.iconduck.com/assets.00/database-mongo-db-icon-1954x2048-wrw32e9l.png;" vertex="1" parent="1">
          <mxGeometry x="389.00000000000006" y="-19.999999999999996" width="71.32" height="74.74" as="geometry" />
        </mxCell>
        <mxCell id="pvuLGhbXDjjUD6PS2VlN-17" value="" style="shape=image;verticalLabelPosition=bottom;labelBackgroundColor=default;verticalAlign=top;aspect=fixed;imageAspect=0;image=data:image/png,iVBORw0KGgoAAAANSUhEUgAAAgAAAAIACAYAAAD0eNT6AAAgAElEQVR42u3dCXwU93338d/srqTVhRAS6ACEuME4HHbs2NixwTh27NTO0SRN+yRNGic90jTp6TZp87zSNu3rSfrkap42TeK0TZqmrZvUjvGBbQ5jbOMT2xgMAoEEEhII3be0xzz7H2mxkPYczWp3Zj5vXjKYY7U7szPf7/x35j8iAAAAAAAAAAAAAAAAAAAAAAAAAAAAAAAAAAAAAAAAAAAAAAAAAAAAAAAAAAAAAAAAAAAAAAAAAAAAAAAAAAAAAAAAAAAAAAAAAAAAAAAAAAAAAAAAAAAAAAAAAAAAAAAAAAAAAAAAAAAAAAAAAAAAAAAAAAAAAAAAAAAAAAAAAAAAAAAAAAAAAAAAAAAAAAAAAAAAAAAAAAAAAAAAAOAiGosgfffL/d6+1b4azedbr+n6ZtFlsy76ek2Tpbou8yN/xcdSAgCLA0uTzsg+tkUT7VgkvV7TNe01PRg8VnYy2P5h+XCIJUQByIjvrbi/zJdfcHMk7D8VCfu7WCIAkEthpu2M/Oe+4PjY/t86/eE+lggFYFYiQa/9cM2D12ia5y8IfQCwTxnQ9fBX7jnxvpciv9ZZIhSA9IJ//c5bNT38U12XSpYIANgw4NRHBprn1+45dtduigAFIKl/XvM/m8Ie789F11eyNADAEU3glCcc+uVPnvjA6ywMCsAM/1r/lD9U0PeVyNH/H1kwgsACBYCMBZdm9t993TtW9hefaN42ylKkABj+cc0D6/M17bCYOHufsAcAW5WC4Liub/zMifcfc/sy87j9PfODtQ+8NxL+b6Yb/vrkDwBA9ulTfiTh82n6m99Z8+8fcPtBsFsLgFrp2vfXPPC7kdb4YAbeYACALJeBRKMFHt3782+v/unnonngxuXkdWn4y31rH/wTTdO+keqbCQBg152+NuP/vZpXwnro3beW3x18vOfBA24sAV7XvQ8ijCN/wh8AXF0CPBMl4JZtZe8e3N2786DbSoDmttf6g7UP3J3KsD/BDwDOLgJqPx/UAzIaHpHR0OhHvtD0W/df+iMKgLNe4z+ueWDd5Al/hD8AUAKM/f14eEyGwoMyEB7Z/NdNv3f4sjhwMI/j1/OkL9d+r3DyUj/CHwBcbPpJgl7NJ37NL4Wa75XfXfTlYrccJDu5AExdcdqSkqq/liSX+hH+AOCuImAEoeaRPE9+pAQUeiuKyr4xPT+c+vqdehLgZSvvu6v/Y5PXk/evhD8AYGZgaEYC6BJW5wRcfV3ZdU8e6NvX6vQS4PiPAD4kH9LyvEX/TfgDABIGhuaRfI9ffFrpf6jscPpIgBMLgDb151vWfeTWRDf2IfwBwN2iOeCN/MjXCqRAK1haX7fpA04++ndiAbhsRW2TbZ588f6EtzcAIH5waMZ5AGpeAK/x5ZM8Le/7KkMSZQwFIDfD3xi6+eCq37xG16WSo38AQLISYBSByI98LV8KtML5m2tv2CEzpwp2TAlw6kcAxpffW/RFwh8AkFJ4aBMjAT7NN/Hl9f/51ExxWglwSgHQpq+UP6r98vzIT7/EWxoAkHqYeFQTMD4GyPcUvPNXK+9Z5MSjf6cUAC3WCMDKknU3cfQPAEg9TCZ+RI79jY8B8iJfFf6FvySx7xho+zLgtHMALn3laQWf5O0MAEgrSCJH/xMfBXiN8wG84v349HxhBCA3j/6N37tervdFVuF7eCsDANIfBVDRrxnnAeRrhVuvlqvzJPY5ALYuA046B+DS1466D9TG+4sM/wMAkpUANQJQ4CmIlIA8WVO1ZRUjALl59D/j8r/ygqr1vIUBAKbCxTgJ0DtxQmDkoNHvK3q7xL8SwLaFwJEjAEWafyNH/wAAsyMA2qV41KRA8jeLA88D8Nh2/SQoAR7xbuItDACYbRFQ5wF49LwrkoS/LQuBz0lH/pcKgOZZy1sXADCrI2TNq+YCkDzNV59gBMC2Q8tOvBeAuohjCW9dAMBsj/7VSYCRUFkoDjsB0K4FQIvx89Qv9ZrKePsCAEwHjRa9GFCLHOJrxZPZEmsUwLYnAzplHoDpK2XGRxucAAgASLcETORH2Jsk/BkByHIRcNw1mgCA7AvrYUfmjJPuBUABAABYFCzRKIkc/+shSfHo31b547HdOkkc+hQAAIBl9MvzJ1H2MAKQhTIQrxwAAJCpA1BbHvU7pQBMXwF8BAAAmKuc4XbAObJC4v0/AACZyBtbH/0zAgAAgEtzxml3AwQAIJsZZJtM8th8YWuMAAAAsjQCoNkx+O0+AkDIAwDIJBcWgGTtDAAAMsbhBYDABwCQPS4dAaAEAADIHBcWAAAAQAEAAABuKwB8HAAAIFsYAQAAgBLgtAKgOXnlAAAoBBQAAABAAQAAgKN+CgAAAHBpAeDzfwAAGAEAAAAUAAAAQAEAAIACAAAAKAAAAIACAAAAKAAAAIACAAAAKAAAAIACAAAAKAAAAIACAAAAKAAAAIACAAAAKAAAAIACAAAAKAAAAIACAAAAKAAAAIACAAAABQAAAFAAAAAABQAAAFAAAAAABQAAAFAAAAAABQAAAFAAAAAABQAAAFAAAAAABQAAAFAAAAAABQAAAFAAAAAABQAAAFAAAAAABQAAAFAAAACgAAAAAAoAAACgAAAAAAoAAACgAAAAAAoAAACgAAAAAAoAAACgAAAAAAoAAACgAAAAAAoAAACgAAAAAAoAAACgAAAAAAoAAACgAAAAQAEAAAAUAAAAQAEAAAAUAAAAQAEAAAAUAAAAQAEAAAAUAAAAQAEAAAAUAAAAQAEAAAAUAAAAQAEAAAAUAAAAQAEAAAAUAAAAQAEAAIACAAAAKAAAAIACAAAAKAAAAIACAAAAKAAAAIACAAAAKAAAAIACAAAAKAAAAIACAAAAKAAAAIACAAAAKAAAAIACAAAAKAAAAIACAAAABQAAAFAAAAAABQAAAFAAAAAABQAAAFAAAAAABQAAAFAAAAAABQAAAFAAAAAABQAAAGSIj0UAZF/ZshKpfkeFlK+eJ0WL/FJYUSC+Qq948zyi+TTRQ7qEA2EJjIRktGdcRjpHpedEv1x4uVt6GgdED+ssRAAUgFx1xUeXS+0NCzPy2HpAl6e/+KoEBoO2WR7LdlTL6g/WZezxmx4+J6ceOZeTr33pTYtk1fuWSsX6+VJc7RdvgdfU44SDYelrGZSLx3qkwF8gTY+0SvMT7RIOZbcQrHrvEql/dy0bfQx9TYPy0tfenNNtwc5GO8fkmS+9zoKgANjbyruWysK3zc/Y48/7r2PS/PQ5KfWW2WJ5XPW5dcYRb8YKwIEWGQz1S4l3Xk683op1ZbLl99ZKzTWVkldizabn8XmkfPk848sIku3V0tnQI6eebJHOF/rlwqHurLxWFf51N1ez0cdw1nteRsLDUugpeqsQbqtiecXRdaJPxsKjUuDxszAoAIhn9Z3LjAIwEOrL+RJQUJYvZStK5+R7ZbsErLijNhL864xhftEy/M0ij1+5rtz4CtwTlKZ9rdL9xqAc//emrI8K4HLTSwASowRQAJDAqlvr5NmKQzLcNZrzJeCKjy0Xj1ebs++XjRKw+v1L5erPrzc+08+GvCKfrHlPvcidIku2LZSXv3tUul8aZEOhBFACQAFwmvzSPFmxY4kcub/R+P9cLgEr37Nkzr/nXJWABWvmybavXy3zV5bmxsKO9Kwl11XJ4msWycldZ6Tpf9rk3MFONpgcKgGgBGQDlwE6zIodSy/7f1UCck3RQr+ULs3GUY8WKQEDGf0Omz+zRu7+2U25E/5TX71XM0YEbv7G26X+/VWieTQ2mBzR+vJ5FkKaJQAUAExTt7VGSmuLc7oEbP7smiyEjzZlJMD6EpA/L0/e/9B2ueqz64wT83KZvyxfbvmbd8iNf7dRgoVjbDSgBFAA4ATefK+s2L54RvgNhPpz5jku216TtfDPRAlQR/sffGyHlK8qtdV7ZfUdy+Su+7aLl5PPQQmgAMAZVt22LGb45UIJqL2uUgorC7Ia/laWgKqrFsjd998k/vJ8W75XarZUynt/uF2K1uSx4YASQAGA3dVeUzV5XfjM8Mt2Cdjw8ZU5taxmUwJqrq2Qd//zVmPGPjubv7xU3vvPt0jZpkI2HlACKACw9Ur1ajNOBsyVElB9dUXOLS8zJWDhlWVy2/evF2++MzahwgUFcvu3bpCCei8bECgBFADY2YpbEl9ml40SoKa/tWoGvGyWADXcf9t9Wx0T/lElVUVy+9e3SnhegA0IlAAKAOyqZvNCWbRhQU6VgA2/vjKnl1kqJUBdvXDHjyJHyvOc+Zl55fpy2f5X18qoh2vTQQmgAMCW1DXfa++qT/r35qoEqI8lFm1ZkPPLLVkJuP5Lb5PylaWOfu+svG2pXPWbV8hwiFkDQQlwMmYCdLDVty+Tg996XYKjoaQloDTDM+Qtf3et+Pz2+HxZlYAS78yQX7Rxvqz90LKMzuc/cG5I2l69KF0NvTLQNihjvQEJjYfFk+eRgnk+KaktlgUry6R6U6Xxc6aeyzW/faW0vdAhbS93SJG3hI0JtiwBzBhIAXAtNSHQ0uuqpemp5LfEzXQJWPvhZZm/EU4GS4Aawbjl76/NyARG4wMBaXi4WU4+fEbaX7so4WDym/aoER71Ec+qO+pk3d31UlRp7Rn86vyGG/50i/zPR3fL8Nhg2iXg0DePy/N/n/lbuHp9Hrnrh9skv2R2H8mokrzznqeSluUYayL99T04PuP3mp9qk//+5SdNPXctzadw5z+9M/J+mX0wPvyp/TLaO57xdRxKe51QAigAMKjh3FQKQCZLgDp6Xbix3HbLbmoJuObeDcYUxpbu2CJH9m/+rFFeue+YceSfDj2ky4XDXdIR+Xrle2/Kpo+tkS2fXG/cAMgqVRsrZMOvrJTDPz5hfByQTgnoPtEvw+GhjK8jb57XWBazpYd1uXisRwLDway810Z6xoyvtMPfRAEJB8KWPOfO430y0pn7Q+2UgAT7ZhaBs6mrAQpKUz86ysQ5Aet/rV68Bfa8vEyVgMKKAln/kXpLRzD6W4fkoU/tk6f+8uW0w3/6sedY75i8+J035IGP7Zauk9ZO+6w+CihaODG6kO45AUWe4oyuG03cfS8Dt7/+dEsAKACuU1jul2U3pjf1rtUlYM0vL7P1Mqy5pdwYxbBK35kBeeievdL6woVZ7Pxn6jjSbZQKNTJg2funwi8bfmXVpf/PlRJA+BP+lAAKAFKwPMGkQJkuAUVVfpm/wr4nkakTFzf++lrrRhTah+WRzx6QnmbzMxAm2vUPnY88/u88LR1vdFv2nK+MFABVBCa+uZb20L7VJYDwJ/wpARQApFoAbl4sheXpz79vRQl42ydX2fq2s6tuXTpxtr0VO5/+cXns889I14nejIT/paP0zhF5/A+flaGOEUued/GiQuNcgKlnm2WrBBD+hD8lgAKANBTMy5fl2xab+rezLQH1t9bYdrmpvLviw6sse7znv/m6nH+9M6PhH9V3dkAOfOVl4+Q2S0YBPrJaCkovv+HRXJcAwp/wpwRQAGBmFGDHEtP/dtBkCZhXVyzF1bO4PE3P7jKrurJCFl+zyJLHaj90UY7c3zgn4R/V+ESrNO09Z8nzV9MEr7h1ZomcqxJA+BP+lAAKgKt1Hu+RsMlLnuq21kixiWt/tVmUgCt/Y6XpM+d7zwzIQPtQVpf3mrvqrfn4IrLKXv6noyld329V+E98X11e/u4Ryy77Wn5r7BKZ6RJA+BP+lAAKgOv1tQ7IuRfNnTmeX5wnK9M8GVCb5UhA3fZq06/1+EOnjcluskVNLLP6TmuuXlDr7MyBtrkN/0nqygA1yZAV6m6okdKa4jktAYQ/4U8JoAAgIq8wTxofP2P636+4LfUCEG+3k2oJqFhfJkWLzE2+ERwLSeOuFsnzZ2+eqqXXVknxQmtm1zty/0nRTRyEW7Xrf/1HDRIOzn4UQF0RUffO+KXO6hJA+BP+lAAKAKI74EKfnN7bKoERc7OVLbm2WuYvTX5JXrLdTiolYMPHV8ziiLlDhi+OGK83WzvexddXWfJY6kz8pn1tJp6DdTqP9UjbSxcteawl1yVeLlaVAMKf8KcEUAAwdQSgyCeDF0ak5eB5U/9eze++6o5llgRPshKweKv5k+eadrcYr1U932zteJdcY00BOB15LYGhYJrPwXqn97Va8ji1b18kvnxvRksA4U/4Z8t4eMxVr5cCYKcCMHlEfGoWHwOs/aV648Y2VgRPvBJQffUCKawsMLcBDgXk1J7WrAz/R3e88xYXy4I18y0qAOfSfA6Z0fLMeUvmzFdzAlSsS75szJaAbIZfLgQv4Z/9Ze+mEkABsFkBUNemn9rbKiO95t6klWvLpfbqRZYFT6wSsOm3zc+cd2Z/mwxdHLH0pjbp7nirNi6IW5LSoSbkaXulI+vhr/Sc7peuRmvuE1C1qSK115/lGQM58ofZZe+WEkABsFMBiISir8ArY/0Bad5v/vruFdPmBJjtbmdqCVDBWXX1glkcMbcYP8/l5//TN/7K9dbcufDCke6Uby+b8V2/rkvHG9bcI2BhGssn3RJQ6CkigJATy94NJYACYLMRgGgwnn6yxXwBuGWJePM0S4MnWgJWfWCpUVLMGO0Zk+YD7XNaAGJt/OUrrJn6V518lxPhP+ni8R5LHmd+fWlaf58SQPjbddk7vQRQAOz0Zo0cXfsKJ8L1zDPtMtBmbqKcsrpSWfKOGst3O6oErP1gvelEO7WnxZgvf6LseLO28ZevmGfJ43c39qbwHOZOz0lrbvCk7o2Q7jkalADC367LPuDgEkABsNsoQMHEjlddCtjwSJPpx1l521Lr30x5HskvMx/c6tr/S68zw+cAxNv4/fPzpWxpqSXfo695MGfCX+lt7rfk3gAFZZFltCz9ZUQJIPztuuyDetCRy4ECYDNTh8ZPPHzG9JndK7YvsXyYXZ1cqEYXzOhvHZJzL7w1y2FeBj8CSLTxqznvrbj8UE28059ghCYbu/7BjhEZ7rTmWufSGnOTJFECCH+WPQUAZkcApgy9djb0SPtr5iZ4UZdzLb2u2tLntnzHYtP/9vTeFgmOh2IWnbnc+IurrAmc4YujMtIzljPhP9FKdBm6YM0tgktqzJ+xPxIednUJcPuljoQ/BQCmRwDeGmLXIwf/J2cxJ4CVHwOoE/9W7agz/e9PPd4S93XO5cZfbHL+ghkFoGsk5t0Ms7r70TQZ7rZmBKCoyj+rdeDWEkD4E/4UAJgfAZh2ZHzqyciR86i5z6fU1QDq81wrLL2uRkoXmzsq7DjSJe2vXj6SYfU5AKlu/PnzrFkeo73jORf+E8/LmhOaCuf7Z70O3FYCCH/CnwKAWfH6L19lA23D0vK8uTsE+ucXyMpblljyvOpnMfx/4tEzM25zbOU5AOls/AUWFQA1o2Guhb/xvAYDljxkusUx3jpwSwkg/Al/CgBmzRfj8qvTe86afrxk9wZIdVRi+TZzBUBdzdC4a+bzt+ocgHQ3/rxia75vYDiYc+GvBEdCljxsflGeZevA6SWA8Cf8KQCwRJ7fG6MAnJPxAXNHduoe7+X1s7vuffkti42z580480yb9J+beWZ4XhoBEz/70t/4PT5rNonQ5AmNuRT+U5/XrHcc+am9slR3wE4tAYQ/4U8BgGW8MY6Mh7tGpWm/ubu9qcBbeXvdrJ7TmruWm/63p3adjTuqkJXlm2fNJqEuz8y18FfCFtwQKNXllO4O2GklgPAn/CkAsHYEIE4wnprl1MBmldYWy7Ibak3929G+cWl+uj3mn/n83uxsEBaNAFgVtFaGv/G8gmFrvoXXk5EdcLoloKSghAAi/Hj9FACXjADEmWf/7LPtxl30zKh6W4VUrjF3AxzjvgImJ85pfqr10tS/uTICYP+9n/1vaZtuCSCACD9ePwXAHSMAcS6PGxsIyIlHm00ezWmy4jZzowAr32V+LoGpU/+m+jrh7PC3ewkg/Al/CgAyVwDi3IRFvfUbftFsemrgVe+qE82T3gZUvrxMaq+pMvX9Bs4Nydnn2uO/TkYAXBv+di0BhD/hTwFARsW6PC761u842iUXTN7zvXJduVRdWZHWv1Fn/3u85ja803tbJTga+4x0j0+z/QhAumVqrsJfy1BRyNQO2C4lgPAn/CkAyHwBmHZy3PS3/qymBk7zaoBVt81i6t9Ew/+RkuMrzM5JgNadJDdHO6U0A12VK0uW05TLCTO9A871EkD4E/4UAMyJ6O2AY4W/0rS7VcIBcyGmTuhL9Sx4ddKgOnnQjK6GXml7tSN+yVEFoCA7IwChcWsKgNc3B5uWiaN5zaoCMPlR01ztgHO1BBD+hD8FAHM3AlDkjRv+Su/ZATl78Lypxy5fMU+WXl+TWll41xLTR7nHH2pKeJmcUXKytG1bVgAyfRmjyaF8q4qVunPjXO+Ac60EuD38NZcuewoAsjcC4PclfeufmsXHAGvvrk++8Xk008P/aorchoebE4dUlob/lfHBcUseJ78kL3NPchaf4+dbNNXxeH8gK+snV0oAR/6EPwUAcz8CkMKRZdNTbZfNRZ+OFduXSOGCxHd6q9pQIZVrzc0boM78Hzw/nOQ1Zu8EwLEBi26WU5qfmSc4y5P4rHpeYwPjWVtH2S4BhD/hTwFAdgpACpfHDXeOGHPsmzpCLM2T5TfXJtwEjTv/mdwOm3Ynn7EwW7MAGsFm1e1yywtyLvwVdQdIK4z2jGd1O8hWCSD8CX8KALJGfQTgSWEe9sZd5j8GWBF3eF8zLvtTcwaYCo2+cTm991zy15jFOQCGL1pTAIoXFVp2R0Orwl8pWui35HGGzmd/KH6uSwDhT/hTAJD1EYBUArJ5f5sMdZibGrhua7WU1BTP2ASVJe+olgWrykw97uk9LUYJSD4CkL235UD7kCWPo84BUPdJyKXwV++bkhprbqAzeH4kJ7aHobFBwp/wn4snQQFA9ql591P5jHx8MCCNT5w1VzIij79i++KY7/5Vd5i/9l9dophqycmWwQvDpm+tPF3ZUgtuVGPhxD3zIoUkv9iakxP7Wwdds80R/u4Of01z7jqgANhxFKAgtc/ITz5yRsTkTemW37J0RvgXzMuXlbeau2eAGo1I9fLEbJ4DoGYn7Gnut+Sx5i8vzZnwt+T5TBruHJX+c0Ou2NYIf8LfySgANpTqZ+Rtr140PTXwkndUyfyl8y4vBTfXJr1CIB41GpHqlQm+LN8HoLuxz5LHqVxfbv4fZ2DHs2BNmSWP03tmwPRkUwQQ4U/4UwAwmxGAVK+T13XTUwOrjxqm3yFwxe3m7/yXaOpfswUnU7oaey15HGOmRDP3BMjQjmfRlQusWT7Hex2/jRH+hL8bUABsWQBSD8jTampgk3cIXH7LWwWgqMIvdVtrTD1O18k+aTvUkfLG7y3wZnX5dh6xJuDKl8+TitXzcyL8ffleqdpYaVEB6CGACH/CnwKAbMhLYzrX3uZ+aXvpgqnvU7Nl4aUAq7+pxvQJZCceaUqphEQ3/myOAKhn0HG02ziJ0ooHq7upOuvhb4xGbKqQokprLgHsOOrcEQDCn/B3EwqALUcA0lttjY+buxpAXfMfnRp4xe3mzv4Pjgal4aHmtDb+bJ0EGH0G4wPjcv61Tksec/Xty1L7GCDDO55lCSd3Sl1/y6B0NvSwERL+hD8FAFkZAUjzCPnU7lbTUwOvubPeGMquu77a1L8/+2x70jPGp2/82RgB0GI8byuoz91rr16Y1fBXw/8r37XEksc691KH6CY/UgLhT/hTADBL6d5pbqhj2JiD34x5S4rlxj/bYnp+/tNJrv2PtfF75/hmQLE2/daDF0xfQjn9wdckusHSHOx46rfVSNkyay4BbHmmnQ2Q8Cf8KQDI2kozca/5VObgj2f5NnNHj2pCHTUjYbobvzpizWb4K50NvaYvoZxuzZ3LpHRxSVbCX32Ms/Hj6yx5LLU+W567wAZI+BP+FADYyam9rSlNw2ulpv2tMtw1mrsbf6I/DOty/IHTlnwfNS3wlk+um/PwV1betiT5RxApUmVutHecjYnwJ/wpALCTMXUjnj0tc/o9T+06a8/wn3TysbMyEqfApGvDh1a+dRneHO14CiLF49rPbrTs8RoebGZDIvwJfwoA7KhpT+ucfa+hiyNy5tnztg1/ZbRnTE48csaS76nmNrjxC1vEVzB3Jzhu+fR6KV85z5LH6mroldbnz7MREf6EPwUAdnT2ufMy2D43t1A9vXfmlQd2Cv+oYz8/LeGgNdPe1ly1ULbeu3lOdkDqjo5bPrHOssc7/OOGyHLg7H/Cn/CnAMCWVCA3PNI8J99r+tS/dgx/pfN4jzQ+Yd1HJxs/ukau+eyGjC6Nmk2VcuvXrrdsRkV19N+w8wwbEOFP+FMAYNdNUGn4RZPpqYFTpW6m0/rieduHf9Sh778poXHrbn5z7WfeJtf/0SZTV3Mko27j/J7v32zZrH/G6/+Bta+f8OP1E/4UAGQh/jpP9Ep7ivPym6VGGaLDxXYPf2OZHeuRE1aOnESe0FWfvkJu/8ZWKa4stGZD9mrGlQa3f/tG8ZflW/ZUO97olpOPtbAJEf6EPwUAdg7/qNMZPBlQHSk2PnbWMeEf9dI/HDFOCrTSytuWyod+dpts+vW1xqWCZnduS6+vlrt+sE1uuHeLcRdHq6gZ/1749hvM/Ef4E/4O5WMRuCv8lVNPtMj1f7BZfBm4617rwfPS09TvuJ2fmgP/4Ddek+1/9Q6x8qWVVBfJO794lXH0ri47bHnmvHQc6Uo4Z4P66KBiVZks2Volq95dN3Hb4Qws7uMPNclZZv4j/Al/CgCcEf5GmJ0bMqYGXrF9ieXftfHxM47d+R392WmpvbZK1t5Vb/ljqyKw5TfWGV/qZM3eSIkaaB+Wsf5xY1RFixzY55fmS/FCv5TVlUrxosKMvtbepgF5/uuH2YwIf8KfAgCnhH9U05MtlheA8aGAND/l4CPGsC7PfVzTW5kAABgMSURBVO1VY2a90trijH2bvCKfLNywwPjKhuBoSPZ96SUZ7hxlUyL8CX8H4xwAF4a/oqZ1teSe91OcOdAed+pfpxjqGJG9f/6iBEaCjn2Nz3/zsLS93MGmRPgT/hQAOC38jSCLHN017z9n6Xc/tcsd14q3PNcuz/6fQ448Oe7o/Y3GpD8g/Al/CgAcGP5RjXHm6jd1ZKym/n3aPSeMHfnPRnn6b1+xbJbAXND4eIsc+Eqk2HDSP+FP+FMA4NzwV9QZ3mpI2wpN+87J+FDQVUv9jZ+ckGf/7jXRw/ZPzKa9rbL3iy8w4Q/hT/hTAOD08FfGh4Ny8nFrhu3n8kZDubPoNXn9Rw3y9FdekXDAvsHZ8ItmeeIPD0rAlgVOy+J3dnvwEP4UANh6A1Q7/9kewfY290vLcy67U9yUHc8bPz0puz73jO3OmldTQr/4nTdkT+TIX535z9En4W+vTZB1QAEg/GdFTTpz/tXO2ZWInc3uGjqOseM5ve+cPPDR3dJy0D5FSJ3EODYQMC5vJPwJf8KfAgCXUSd8ndprfq53dRLcyUfPumeBJdjx9DQPyM5PPSXPfPXQjFsh5yI1bbCahfCmL79dfH6vfVYB4U/4gwIAazQ92Wr6M+xzL3ZIz+l+14f/pUIUOap+7V8a5Oe/ultO7261xQmCV/7KKrnrvptl/rJSwp/wJ/wpAHCTnjMD0vrCBVP/9tTjLjn6T3PH09nQI4999oD84hP7jMvrcv1ywdq3L5L3/2SH1G+rJfwJf8KfAgA3aTQR5Grq31O7XXD2v8kdjzr2b33xguz6/DPy3x96Ql770XEZPD+csy+zaKFf7vjOjXL171whHl9u7WwJf8If1uNeADCo6/jV59ZqHvpUnX223fnzxVu047l4rMf4euFbb0jdDdVSv2Ox1N9UK4UV/tw6IsjzyHWf3ygLN5TL/v/9sox0j2V/FRD+hD8y9P6233PVpnypM5c8kz/7ol/3rX2wfebRWG58FjsY6rfNKsqJST4cEP6JXpu6s1/15gqpWF8uC1aUyfz6ksiReGHCIqbOMxjuHJG+s4NSWO6XBavmZeT5qcd/4g+ek46j3YS/K8OB6/yDekD6gj3SMtYs32/7eo36rSlf6trZ8OTP+pQvmfIzIwB4S4l3XholgPB3avhH9xC9ZweML3mo+dLv50fCv3CBX/JL8o0z9b2Ro3J1MmEoEJbAUEBG+8ZltHfc+D3//Hy58QtXydq76y1fYGV1JXLXD2+Wp//yFTn52FlXvQcJf8LfDSgAOVsCCH8nh38iaobGwPBQ5FdDSf+uKgK7/+x5Of96p2z9k82SV2jtJu2fXyDv+r/XS/VVlcbHF+q8D8Kf8Cf8nYGTALNYAgh/wt+SdaCLHPlpozz62wdkoG3I+ufj1WTjx9ZMXCpYV+ro9yDhT/hTAJDFEkD4E/7mqEs5H/qNp6Tjjcx8Zl+9pVLe++PtUnv1QsKf8Cf8KQCwtgQQ/oT/7PSeGZCHPrlPjj/YlJn3a3WR3PaNrVK8qJDwJ/wJfwoArCkBhD/hbw01v//eL7wgz371Vcvv0TB8cVT23PuCZbeRJvwJf8KfAkAJ8Ja6d+Mn/C1/THWPBzUl8aOfOSCDF6yZfKi3aUAe/tR+aXnhvGPeg4Q/4U8BgCtLAOHvzPCf6uwz7fLA/9orF17vmtXjdB7rkYc/vV8uNvQQ/oQ/4U8BgJ1LAOHv/PCP6m8dlJ2/uV8aTV7Lf/bpdtkZOfLvizwO4U/4E/4UANi4BBD+7gn/qLG+cXnijw/K898+nNadH9XJhLs+96wMd4065j1I+BP+oAC4sgQQ/u4L/yg9pMsr331THklhvgA1y+Ar33tT9v35SxIYDRL+hD/hTwGAnUsA4e/e8J9K3cTpoU88JRffjP15vrpy4OmvvCLPf/OwhENhx7x+wp/wBwXAlSWA8Cf8p1L3H1An9TXtOXfZ748PBmTPvQeNmQWd9PoJf8IfFABXlgDCn/CPRX2u//jvPysv/9PRiTsMXhyVR3/ngJzc1UL4E/6EvwtwMyAblYDB0ADhT/hbSt1hUN3k58KrnTLQNiJdJ3sJf8Kf8KcAwO4lgPAn/FPVvL/dca+f8Cf8kRgfAdiwBBD+hD8BxLIn/EEBoAQQ/oQ/AcSyJ/xBAXB7CSD8CX/Cn2VP+IMC4LISQPgT/oQ/y57wBwXAZSWA8Cf8CX+WPeEPCoDLRwIIfwKI8GfZE/6gALhEsbeE8CeACH+WPeEPCgAlgPAngAh/lj3hDwoAJYDwJ4AIf5Y94Q8KACWA8CeACH+WPeFPAQAlgPAngAh/lj3hTwEAJYDwJ4AIf5Y94U8BACWA8CeACH/Cn/CnAMCdJYDwJ4BY9oQ/64ACAJeVAMKfnR/LnvBnHVAA4LISQPiz82PZE/6sAwoAXFYCCH92fix7wp91QAGAy0oA4c/Oj2VP+LMOKABwWQkg/Nn5sewJf9YBBQAuKwGEPzs/lj3hzzqgAMBlJYDwZ+fHsif8WQcUALisBBD+7PxY9oQ/64ACABcqysKthAl/dn4se8KfdUABgBtLAOFP+LPsCX+2fwoAXFYCCH/Cn2VP+LP9UwDgshJA+BP+LHvCn+2fAgCXlQDCn/Bn2RP+bP8UALisBBD+hD/LnvBn+6cAwGUlgPAn/Fn2hD/bPwUALisBhD/hz7In/Nn+KQBwWQkg/Al/lj3hz/ZPAYDLSgDhT/iz7Al/tn8KAFxWAgh/wp9lT/iz/VMA4LISQPgT/ix7wp/tnwIAl5UAwp/wZ9kT/mz/FAC4rAQQ/oQ/y57wZ/unAMBlJYDwJ/xZ9oQ/2z8FAC4fCWDjJ/xZ9oQ/70EKAFxSAjzFbPyEP8ue8Oc9SAEAJYCNn/Bn2RP+vAcpAKAEsPET/ix7wp/3IAUAlAA2fsKfZU/48x6kAIASwMZP+LPsCX/egxQAUALY+Al/lj3hz3uQAgBKABs/4U/wEP5ZXQfOXPYUANiiBBBAhD/hzzog/CkAcFkJIIAIf8KfdUD4UwDgshJAABH+hD/rgPCnAMBlJYAAIvwJf9YB4U8BgMtKAAFE+BP+rAPCnwIAl5UAAojwJ/xZB4Q/BQAuKwEEEOFP+LMOCH8KAFxWAgggwp/wZx0Q/hQAuKwEEECEP+HPOiD8KQBwoUJPETs/wp/wZx0Q/hQAUALY+RH+hD/rgPCnAIASwM6P8Cf8WQeEPwUAlAB2foQ/4c86IPwpAKAEsPMj/Al/1gHhTwEAJYCdH+FP+LMOCH8KACgB7PwIf8Kf8AcFAJQAwp/gIfwJf1AAQAkg/Akewp/wpwAAlADCn+Ah/Al/CgBACSD8CR7Cn/CnAACUAMKf4CH8CX8KAEAJIPxZ9oQ/4U8BACgBhD/hzzog/CkAgOtKAOFP+LMOCH8KAOCyEkD4E/6sA8KfAgC4rAQQ/oQ/64DwpwAALisBhD/hzzog/CkAgMtKAOFP+LMOCH8KAOCyEkD4E/6sA8KfAgC4rAQQ/oQ/64DwpwAALisBhD/hzzog/CkAgMtKAOFP+LMOCH8KAOCyEkD4E/6sA/eGv1PXPgUAlADCn+Ah/Al/F26DFABQAgh/gofwJ/xduA1SAEAJIPwJHsKf8HfhNkgBACWA8Cd4CH/C34XbIAUAlADCn+Ah/Al/F26DFABQAgh/gofwJ/xduA1SAEAJIPzZ8RL+hL8Lt0EKACgBkRJA+BP+rAPCnwIAuJDfU8iOh/BnHRD+FACAEsCOh/BnHRD+FACAEsCOh/BnHRD+FACAEsCOh/BnHRD+FACAEsCOh/BnHRD+FACAEsCOh/BnHRD+FACAEsCOh/An/HkPUgAA95UAwp/wJ/x5D1IAAJeVAMKf8Cf8eQ9SAACXlQDCn/An/HkPUgAAl5UAwp/wJ/x5D1IAAJeVAMKf8Cf8eQ9SAACXlQDCn/An/HkPUgAAl5UAwp/wJ/x5D1IAAJeVAMKf8Cf8eQ9SAACXjwQQPIQ/4U/4UwAAlyjw+Akewp/wJ/wpAAAlgOAh/Al/wp8CAFACCB7Cn/An/CkAACWA4CH8CX/CnwIAUAIIHsKf8Cf8KQAAJYDgIfwJf8KfAgBQAgh/wp/wJ/wpAAAlgPAn/Al/UAAASgDhT/gT/o599RQAgBJA+BP+hD/hTwEwR4/8ACgBhD/hT/in8ur1qT90Z+aHUwtAMBd3aIAdSgDhT/hz5D954KiCX31pEqIA2Odov5+YASWA8Cf8Cf/ZhH848iMU+RH5eYQCkOu5Pymsh9qIGFACCH/Cn/A3++rV0H8kSySoB1QJ6KIA2ERADzQSL6AEEP6EP+Fv9tWrAqCO/oN6UILh4DkKgE2MhoeP5uIODsjFEkD4E/6Ef2yhSPiPh8fVKMCJy7oBBSB3dYW6jkqcRgdQAgh/wp/wT/TqJ879D0cKQFjG9TEZDg+/zghA7tFj/X/D4GE+AgAlgPAn/Al/U69enQAY0ieG/wP6uHQHOg6nmEEUgGzb1/lIR6yjfT4GACWA8Cf8Cf9k31md/a9O/gtEjv4D4XE53PtikxMC3w0FQO+RntBYeHRP7LrGxwBwdwkg/Al/wj9BgEwO/wciBWA4NCwBGX+9V3oDTgt/x44AKO3jLf+phm+mBj4jAHB7CSD8CX/CP0kBiA7/hwMypo/IUGjwZ059Lzq2AOzqeuAFdQanWpFTm5168zEKADeWAMKf8Cf8kx/9q+F/New/Ggn/0fConBg6uosCkNtmnAz4yuDBgZHw0H61OqOBzwgA3FoCCH/Cn/BP9eg/GDnyH1NH/pESMHz4jeFDnRLnhHMKQO6F/6Xfbxg+8v9Uk1Nf09+IjALALSWA8Cf8Cf80jv71cRmLHPkPh4akY/zCPyTKGApAbhUBfepK+bf2774WknDveGSFqo8CCH24rQQQ/oQ/4Z/e0b8a9jeO/sNDQ/u7H9uXKGMoALl11H/ZihqNrMKG0aP3Bo1GN2Jc1hG9vWO08QFOLQGEP+FP+Kd+9B8SNevfmJpJVgZD/dIZ6vrrMRkLpRj6tgwTOxUAPcaC1mM0s8tW1r+0fuvpMX28bTRSAMJ62Gh4gNNLAOFP+BP+qVPZoM76HzbCf0CGwoNduzt/8Ys4R/96kjyiAGSpEMwYBYg0uPCrA8/9vprOcSQ8NPFRgP7WSYGMAsBpJYDwJ/wJ//TC3xj610eNjOgP9sr5sTP3pnD0Hy+DbBMqTroKIO7Xzy7+2xt9wd77RyY/BlBfEyt9ogxQAuCUEkD4E/6Ef5rhL8FI8A/LcGjQCP8hfeDx3b2PPZcsV5zwXnXCvQD0BEXg0u/9+4UffDWoB8PqzE51lqf6Ck85MZASALuXAMKf8Cf80wmPic/91cfDw5Ej/8hBovSHesP7u5/8UqwMiRP8tg4Or+22r7d+jvflmfZl/N5AqC/k9xY/VZm38MPqYg+P+qGpL81400Z3XMwVADvxaT5j+JLwJ/wJ/zTDX5846W8opIb9+6Qn1CVNIyc/fnTk1WY1ODDlKzTt/6Nfth8JsHMBkDjhr00P/+ivT40c617mX3EuT/Pv8GpGBVB7LbkU/ZQA2LYEhAh/wp/wTyP81bX+g2rYP9QjPcEu6Qie/9vdPTufSBL++rTwt3UJ8NpyW4tdAjwJRgEu/dnhoVdOXlG8OayJ51pjBGDi+P/SW8P4tUYJgM025CyWAMKf8LfLq49+5j9mXOs/JAOhyJF/oFO6Q50/2tn5nz+Ic6QfTlICxK4lwO4FIPprj6TwMUD0zw8NHjy0oWSTP/LLLZqqAJOjABMfBQglAJQAwp/wd2j4G5/5q2H/UK8R/r3h7vsfuPiTr00J9kTD/tNLwMwBBgrAnBaAVL4800vCoYHnX1xddKV6A789eh5AdId22U6NIgBKAOFP+Ns2/CeG/EPG1V8jk9f5qyP/7mDkyD/Y9eMp4a/LzOH/qV+O+vzfCQUgUSGYceQ//ev1wRcP1fnrL3jFt+2toNcv/dCixUDLhQ0eyJ0SQPgT/rn+6o29uD5xpn8gPDEPzFB4QPqCPdIVCf+LwfNf3dn1X/clCP9kIwC2O+J3QgGIFf5TC4AkKAEzysDRodcaCnwlz5Z6St4Xebtoxg0h9LBxU4i3voFOEQAlgPAn/MUet/RVwa8G/AORo3415D8UHpwY8g92qc/7w00jJ+/Z2/vobrn8RL7p4T/96D8kiT//t10ZcEIBSDTsn+jPLz3W2dHGzrOjzT+pyq9ZHNQDq6Lhr+vhKfcOmHJLYYoAXFoCCH/CP1df/fTgH9NHjcl9BkL90hvsNsK/L9i9Z1/P4584PnK4JcZRf7wCMPX3HDURkN0LgMQYAYgX9gnPExgKDwQPD728t9RT+qrPk781pAcLJ8YBQsYlI9FJg4wycGn2QMoA3FMCCH/CP9de/VvD/KHJ4B+fOOKPBP/gpeDvlJ5Qd0/r6Kk/frT7gX+J7OvHZeZlfLE++493GaBjZgTUHPDc453975388k352Tfl96NfMz4eyJM8z60L33fnQu+iPy32FBcVeoulQPOL31MoeZE/Vddd+9TPnrzIA3iNCYUmnojnskmFKAbIFWrCE8Kf8Ldr+F+asVXXLxuVjc7jH1TX9etjxvt8TI8WgAH1uf9Id7D77/Z1P7IzIIHwtMDXJfbJfsHJr9CUnxMVAbFrEXBKARCJffnf9ALgjVECYl4qqB4wUgS8N82//YZF+dWfLvQUXVHkLTEKQL6nIFIGiiK/9hmh79G8xq/V0ZYqBFp0kiHAASWA8Cf8c+HVq/FY9bFsJO4nQ3/izH5jRj91s7fQsAyFh4zb+Y7qY8cujrfd91zvvgOR4A9NCenp4R+OEf6xfk52EiAFIIdHAbwJSoAnUQmI/rzcv7riiuJNO4q9pXf7tcJ1fm/hRPhH/jtRCCZGB7yRL21yNGDiXREmeZAzAuFAmuHv7uXl9vCXnBr2j17OFzSG+tVkPmq4X4W/+sw/UgmOD4UGdh4fOrynabSxM0ZAxwr/cILwT3YJoO2vBHBKARCJfea/N0EJ8KZQAmKNNEiRFPnWlFy5rDK/alORp3i93+Ov92l51V7xlUX+lj/ydvBcGqjSKQDILWoHypF/roe/u+Mh/nfWh8O63h/UQu3B8HjTYHjgzc7xC0dODh5tHpbh4GVtYebPicI/lCD8QzJzBkDbH/07oQDEGwXQpo0CeBKEf7wSEPeqARcsUwDIRXoafx7rhL1E4T+9CEw/CVB30tG/iH2vAkglcJMFdyrBrk1byekUAQDA3BcDPc6Rf6zP/ZPN+qeLw878d1oBmD4KkCjwZ3u0rqf4PAAAczcKEGtYPpXP/cMyc9g/3m1/9TTzgAKQpRKgJTnS1yx48+mEPwDkxBF/vPBPNNlPqqGvOyn0nV4ArGyVkqT1xRt2AgBkJvjjhX8qwZ9sql9XFQGvw94c2izeVPFWqp4g4GP9mWM/LwKALIS9nsI+Nlnoxwr/cBojAI4cBfA58A2jJThCDyd5o3knf54+oVD0cRNNM2zVSAQAIPHBWrKj/1RGABId9YfFoZ/7O7kAxCoD0RUWjlEOpgf/1PD3TnkjJLq1sFAEACArwS9xgj/WdL+JioCeIPwdO4rrc+gbRYtTAmTKKIAWZxRAj1EGwlN+TnUkgBIAANaGfypH/vHO/E/0NT349QTFgwLggBKgxXgThWXm8L8mMycImj5TICMAADD3IwCJrvfXk4R9vOB3Rfg7uQCkUgKmFgF92t+ZXgjCEn+GwGQfBQAArCsB6Y4A6Ckc7bsu/J1eAGKVgFh/Nj3Ap76Bpt9bIFn4MwIAAJkfAUjlBMB4ZSDRcL+jT/pzWwGYugK1JCt06uf7eoxfp/r5P+cBAID1wZ/uKECyI31XHvW7OZxiHaHHu5lQKsP96Q7/UwYAIL3QT7UApFII4oW+68LfrYEU7wg9UbAnGu6nAABA9gqAJCkBkmLwuyr83RxImsmRAUkj+Al7AMhMKdBTLATpHOm7btZWt4dUOkUg3pE/4Q8A2SsB8UYCCH4KgOnloM3i1yxnALA28JOFf6q/dn3wE0zmikCqfwcAMPcFQTfxd1zLyyKwpBjxhgKA7I8O6Cb+DQUAlpUBAEB2CgChT7ixvACAcgACjWUJAIQ8AAAAAAAAAAAAAAAAAAAAAAAAAAAAAAAAAAAAAAAAAAAAAAAAAAAAAAAAAAAAAAAAAAAAAAAAAAAAAAAAAAAAAAAAAAAAAAAAAAAAAAAAAAAAAAAAAAAAAACw2P8HRRsHWd50BEEAAAAASUVORK5CYII=;" vertex="1" parent="1">
          <mxGeometry x="375.32" y="183.5" width="85" height="85" as="geometry" />
        </mxCell>
        <mxCell id="pvuLGhbXDjjUD6PS2VlN-43" style="rounded=0;orthogonalLoop=1;jettySize=auto;html=1;entryX=0.5;entryY=0;entryDx=0;entryDy=0;exitX=0;exitY=0.25;exitDx=0;exitDy=0;" edge="1" parent="1" source="pvuLGhbXDjjUD6PS2VlN-18" target="pvuLGhbXDjjUD6PS2VlN-17">
          <mxGeometry relative="1" as="geometry" />
        </mxCell>
        <mxCell id="pvuLGhbXDjjUD6PS2VlN-18" value="Sensor de Umidade" style="rounded=0;whiteSpace=wrap;html=1;shadow=0;fillColor=light-dark(#FFCCCC,var(--ge-dark-color, #121212));" vertex="1" parent="1">
          <mxGeometry x="507.5" y="70" width="110" height="40" as="geometry" />
        </mxCell>
        <mxCell id="pvuLGhbXDjjUD6PS2VlN-19" value="Irrigador (atuador)" style="rounded=0;whiteSpace=wrap;html=1;fillColor=light-dark(#99FFFF,var(--ge-dark-color, #121212));" vertex="1" parent="1">
          <mxGeometry x="507.5" y="125" width="110" height="40" as="geometry" />
        </mxCell>
        <mxCell id="pvuLGhbXDjjUD6PS2VlN-20" value="Sensor de Temperatura" style="rounded=0;whiteSpace=wrap;html=1;fillColor=light-dark(#FFCCCC,var(--ge-dark-color, #121212));" vertex="1" parent="1">
          <mxGeometry x="507.5" y="179.74" width="110" height="40" as="geometry" />
        </mxCell>
        <mxCell id="pvuLGhbXDjjUD6PS2VlN-21" value="Refrigerador (atuador)" style="rounded=0;whiteSpace=wrap;html=1;fillColor=light-dark(#99FFFF,var(--ge-dark-color, #121212));" vertex="1" parent="1">
          <mxGeometry x="507.5" y="234.74" width="110" height="40" as="geometry" />
        </mxCell>
        <mxCell id="pvuLGhbXDjjUD6PS2VlN-50" style="rounded=0;orthogonalLoop=1;jettySize=auto;html=1;exitX=0;exitY=0.5;exitDx=0;exitDy=0;entryX=1;entryY=1;entryDx=0;entryDy=0;" edge="1" parent="1" source="pvuLGhbXDjjUD6PS2VlN-22" target="pvuLGhbXDjjUD6PS2VlN-17">
          <mxGeometry relative="1" as="geometry" />
        </mxCell>
        <mxCell id="pvuLGhbXDjjUD6PS2VlN-22" value="Sensor de Luminosidade" style="rounded=0;whiteSpace=wrap;html=1;fillColor=light-dark(#FFCCCC,var(--ge-dark-color, #121212));" vertex="1" parent="1">
          <mxGeometry x="507.5" y="285" width="110" height="40" as="geometry" />
        </mxCell>
        <mxCell id="pvuLGhbXDjjUD6PS2VlN-23" value="Iluminação (atuador)" style="rounded=0;whiteSpace=wrap;html=1;fillColor=light-dark(#99FFFF,var(--ge-dark-color, #121212));" vertex="1" parent="1">
          <mxGeometry x="507.5" y="340" width="110" height="40" as="geometry" />
        </mxCell>
        <mxCell id="pvuLGhbXDjjUD6PS2VlN-26" value="" style="endArrow=classic;startArrow=classic;html=1;rounded=0;exitX=0.5;exitY=0;exitDx=0;exitDy=0;entryX=0.002;entryY=0.666;entryDx=0;entryDy=0;entryPerimeter=0;fillColor=#00994D;strokeColor=light-dark(#4D9900,#FFFFFF);edgeStyle=orthogonalEdgeStyle;" edge="1" parent="1" source="pvuLGhbXDjjUD6PS2VlN-8" target="pvuLGhbXDjjUD6PS2VlN-13">
          <mxGeometry width="50" height="50" relative="1" as="geometry">
            <mxPoint x="430" y="270" as="sourcePoint" />
            <mxPoint x="480" y="220" as="targetPoint" />
          </mxGeometry>
        </mxCell>
        <mxCell id="pvuLGhbXDjjUD6PS2VlN-27" value="" style="endArrow=classic;startArrow=classic;html=1;rounded=0;exitX=0;exitY=0.5;exitDx=0;exitDy=0;entryX=0;entryY=0.5;entryDx=0;entryDy=0;strokeColor=light-dark(#4D9900,#FFFFFF);edgeStyle=orthogonalEdgeStyle;" edge="1" parent="1" source="pvuLGhbXDjjUD6PS2VlN-10" target="pvuLGhbXDjjUD6PS2VlN-13">
          <mxGeometry width="50" height="50" relative="1" as="geometry">
            <mxPoint x="300" y="234.74" as="sourcePoint" />
            <mxPoint x="390" y="169.74" as="targetPoint" />
          </mxGeometry>
        </mxCell>
        <mxCell id="pvuLGhbXDjjUD6PS2VlN-30" style="edgeStyle=orthogonalEdgeStyle;rounded=0;orthogonalLoop=1;jettySize=auto;html=1;entryX=0.004;entryY=0.523;entryDx=0;entryDy=0;entryPerimeter=0;" edge="1" parent="1" source="pvuLGhbXDjjUD6PS2VlN-2" target="pvuLGhbXDjjUD6PS2VlN-7">
          <mxGeometry relative="1" as="geometry" />
        </mxCell>
        <mxCell id="pvuLGhbXDjjUD6PS2VlN-31" style="edgeStyle=orthogonalEdgeStyle;rounded=0;orthogonalLoop=1;jettySize=auto;html=1;entryX=0.004;entryY=0.79;entryDx=0;entryDy=0;entryPerimeter=0;" edge="1" parent="1">
          <mxGeometry relative="1" as="geometry">
            <mxPoint x="467.9963636363635" y="780" as="sourcePoint" />
            <mxPoint x="504.32000000000005" y="782" as="targetPoint" />
          </mxGeometry>
        </mxCell>
        <mxCell id="pvuLGhbXDjjUD6PS2VlN-35" value="" style="endArrow=classic;html=1;rounded=0;entryX=0.004;entryY=0.778;entryDx=0;entryDy=0;entryPerimeter=0;" edge="1" parent="1" source="pvuLGhbXDjjUD6PS2VlN-3" target="pvuLGhbXDjjUD6PS2VlN-7">
          <mxGeometry width="50" height="50" relative="1" as="geometry">
            <mxPoint y="310" as="sourcePoint" />
            <mxPoint x="50" y="260" as="targetPoint" />
          </mxGeometry>
        </mxCell>
        <mxCell id="pvuLGhbXDjjUD6PS2VlN-37" value="" style="endArrow=classic;startArrow=classic;html=1;rounded=0;exitX=1;exitY=0.75;exitDx=0;exitDy=0;entryX=0.043;entryY=0.335;entryDx=0;entryDy=0;entryPerimeter=0;" edge="1" parent="1" source="pvuLGhbXDjjUD6PS2VlN-8" target="pvuLGhbXDjjUD6PS2VlN-17">
          <mxGeometry width="50" height="50" relative="1" as="geometry">
            <mxPoint x="370" y="240" as="sourcePoint" />
            <mxPoint x="420" y="190" as="targetPoint" />
          </mxGeometry>
        </mxCell>
        <mxCell id="pvuLGhbXDjjUD6PS2VlN-38" value="" style="endArrow=classic;startArrow=classic;html=1;rounded=0;exitX=1;exitY=0.5;exitDx=0;exitDy=0;entryX=0;entryY=0.5;entryDx=0;entryDy=0;" edge="1" parent="1" source="pvuLGhbXDjjUD6PS2VlN-10" target="pvuLGhbXDjjUD6PS2VlN-17">
          <mxGeometry width="50" height="50" relative="1" as="geometry">
            <mxPoint x="310" y="165" as="sourcePoint" />
            <mxPoint x="389" y="222" as="targetPoint" />
          </mxGeometry>
        </mxCell>
        <mxCell id="pvuLGhbXDjjUD6PS2VlN-40" value="" style="endArrow=classic;startArrow=classic;html=1;rounded=0;exitX=1;exitY=0.25;exitDx=0;exitDy=0;" edge="1" parent="1" source="pvuLGhbXDjjUD6PS2VlN-11">
          <mxGeometry width="50" height="50" relative="1" as="geometry">
            <mxPoint x="310" y="240" as="sourcePoint" />
            <mxPoint x="380" y="240" as="targetPoint" />
          </mxGeometry>
        </mxCell>
        <mxCell id="pvuLGhbXDjjUD6PS2VlN-45" value="" style="endArrow=classic;startArrow=classic;html=1;rounded=0;exitX=0.75;exitY=0;exitDx=0;exitDy=0;entryX=0;entryY=0.25;entryDx=0;entryDy=0;" edge="1" parent="1" source="pvuLGhbXDjjUD6PS2VlN-17" target="pvuLGhbXDjjUD6PS2VlN-19">
          <mxGeometry width="50" height="50" relative="1" as="geometry">
            <mxPoint x="370" y="240" as="sourcePoint" />
            <mxPoint x="420" y="190" as="targetPoint" />
          </mxGeometry>
        </mxCell>
        <mxCell id="pvuLGhbXDjjUD6PS2VlN-48" value="" style="endArrow=classic;startArrow=classic;html=1;rounded=0;exitX=1;exitY=0.75;exitDx=0;exitDy=0;entryX=0;entryY=0.75;entryDx=0;entryDy=0;" edge="1" parent="1" source="pvuLGhbXDjjUD6PS2VlN-17" target="pvuLGhbXDjjUD6PS2VlN-21">
          <mxGeometry width="50" height="50" relative="1" as="geometry">
            <mxPoint x="449" y="194" as="sourcePoint" />
            <mxPoint x="518" y="145" as="targetPoint" />
          </mxGeometry>
        </mxCell>
        <mxCell id="pvuLGhbXDjjUD6PS2VlN-49" value="" style="endArrow=classic;startArrow=classic;html=1;rounded=0;exitX=0.5;exitY=1;exitDx=0;exitDy=0;entryX=0;entryY=0.5;entryDx=0;entryDy=0;" edge="1" parent="1" source="pvuLGhbXDjjUD6PS2VlN-17" target="pvuLGhbXDjjUD6PS2VlN-23">
          <mxGeometry width="50" height="50" relative="1" as="geometry">
            <mxPoint x="470" y="257" as="sourcePoint" />
            <mxPoint x="518" y="275" as="targetPoint" />
          </mxGeometry>
        </mxCell>
        <mxCell id="pvuLGhbXDjjUD6PS2VlN-51" style="rounded=0;orthogonalLoop=1;jettySize=auto;html=1;exitX=0;exitY=0.25;exitDx=0;exitDy=0;entryX=0.973;entryY=0.382;entryDx=0;entryDy=0;entryPerimeter=0;" edge="1" parent="1" source="pvuLGhbXDjjUD6PS2VlN-20" target="pvuLGhbXDjjUD6PS2VlN-17">
          <mxGeometry relative="1" as="geometry" />
        </mxCell>
        <mxCell id="pvuLGhbXDjjUD6PS2VlN-52" value="Replicação de Dados" style="text;html=1;align=center;verticalAlign=middle;whiteSpace=wrap;rounded=0;" vertex="1" parent="1">
          <mxGeometry x="170" y="-30" width="135" height="30" as="geometry" />
        </mxCell>
        <mxCell id="pvuLGhbXDjjUD6PS2VlN-54" value="MongoDB" style="text;html=1;align=center;verticalAlign=middle;whiteSpace=wrap;rounded=0;" vertex="1" parent="1">
          <mxGeometry x="357.15999999999997" y="54.739999999999995" width="135" height="30" as="geometry" />
        </mxCell>
        <mxCell id="pvuLGhbXDjjUD6PS2VlN-55" value="pub/sub" style="text;html=1;align=center;verticalAlign=middle;whiteSpace=wrap;rounded=0;rotation=30;fontSize=9;" vertex="1" parent="1">
          <mxGeometry x="290" y="169.74" width="140" height="20.26" as="geometry" />
        </mxCell>
        <mxCell id="pvuLGhbXDjjUD6PS2VlN-56" value="pub/sub" style="text;html=1;align=center;verticalAlign=middle;whiteSpace=wrap;rounded=0;rotation=-45;fontSize=9;" vertex="1" parent="1">
          <mxGeometry x="285" y="241" width="140" height="20.26" as="geometry" />
        </mxCell>
        <mxCell id="pvuLGhbXDjjUD6PS2VlN-57" value="pub/sub" style="text;html=1;align=center;verticalAlign=middle;whiteSpace=wrap;rounded=0;rotation=0;fontSize=9;" vertex="1" parent="1">
          <mxGeometry x="330.32" y="207.93" width="45" height="20.13" as="geometry" />
        </mxCell>
        <mxCell id="pvuLGhbXDjjUD6PS2VlN-58" value="pub/sub" style="text;html=1;align=center;verticalAlign=middle;whiteSpace=wrap;rounded=0;rotation=-30;fontSize=9;" vertex="1" parent="1">
          <mxGeometry x="400" y="144.74" width="140" height="20.26" as="geometry" />
        </mxCell>
        <mxCell id="pvuLGhbXDjjUD6PS2VlN-59" value="pub/sub" style="text;html=1;align=center;verticalAlign=middle;whiteSpace=wrap;rounded=0;rotation=15;fontSize=9;" vertex="1" parent="1">
          <mxGeometry x="460.32" y="234.99999999999997" width="40" height="15" as="geometry" />
        </mxCell>
        <mxCell id="pvuLGhbXDjjUD6PS2VlN-60" value="pub/sub" style="text;html=1;align=center;verticalAlign=middle;whiteSpace=wrap;rounded=0;rotation=45;fontSize=9;" vertex="1" parent="1">
          <mxGeometry x="440" y="285" width="40" height="15" as="geometry" />
        </mxCell>
        <mxCell id="pvuLGhbXDjjUD6PS2VlN-61" value="pub" style="text;html=1;align=center;verticalAlign=middle;whiteSpace=wrap;rounded=0;rotation=40;fontSize=9;" vertex="1" parent="1">
          <mxGeometry x="467.5" y="270" width="40" height="15" as="geometry" />
        </mxCell>
        <mxCell id="pvuLGhbXDjjUD6PS2VlN-62" value="pub" style="text;html=1;align=center;verticalAlign=middle;whiteSpace=wrap;rounded=0;rotation=-30;fontSize=9;" vertex="1" parent="1">
          <mxGeometry x="460.32" y="190" width="40" height="15" as="geometry" />
        </mxCell>
        <mxCell id="pvuLGhbXDjjUD6PS2VlN-63" value="pub" style="text;html=1;align=center;verticalAlign=middle;whiteSpace=wrap;rounded=0;rotation=-45;fontSize=9;" vertex="1" parent="1">
          <mxGeometry x="410" y="144.74" width="40" height="15" as="geometry" />
        </mxCell>
        <mxCell id="pvuLGhbXDjjUD6PS2VlN-66" style="edgeStyle=orthogonalEdgeStyle;rounded=0;orthogonalLoop=1;jettySize=auto;html=1;entryX=0.5;entryY=1;entryDx=0;entryDy=0;" edge="1" parent="1" source="pvuLGhbXDjjUD6PS2VlN-65" target="pvuLGhbXDjjUD6PS2VlN-8">
          <mxGeometry relative="1" as="geometry" />
        </mxCell>
        <mxCell id="pvuLGhbXDjjUD6PS2VlN-65" value="Replicas" style="rounded=0;whiteSpace=wrap;html=1;fillColor=#FFFFCC;strokeColor=#36393d;" vertex="1" parent="1">
          <mxGeometry x="192.5" y="144.44" width="55" height="15.13" as="geometry" />
        </mxCell>
        <mxCell id="pvuLGhbXDjjUD6PS2VlN-70" style="edgeStyle=orthogonalEdgeStyle;rounded=0;orthogonalLoop=1;jettySize=auto;html=1;entryX=0.5;entryY=1;entryDx=0;entryDy=0;" edge="1" parent="1" source="pvuLGhbXDjjUD6PS2VlN-67" target="pvuLGhbXDjjUD6PS2VlN-10">
          <mxGeometry relative="1" as="geometry" />
        </mxCell>
        <mxCell id="pvuLGhbXDjjUD6PS2VlN-67" value="Replicas" style="rounded=0;whiteSpace=wrap;html=1;fillColor=#FFFFCC;strokeColor=#36393d;" vertex="1" parent="1">
          <mxGeometry x="192.5" y="262.61" width="55" height="15.13" as="geometry" />
        </mxCell>
        <mxCell id="pvuLGhbXDjjUD6PS2VlN-69" value="" style="edgeStyle=orthogonalEdgeStyle;rounded=0;orthogonalLoop=1;jettySize=auto;html=1;" edge="1" parent="1" source="pvuLGhbXDjjUD6PS2VlN-68">
          <mxGeometry relative="1" as="geometry">
            <mxPoint x="220" y="340" as="targetPoint" />
          </mxGeometry>
        </mxCell>
        <mxCell id="pvuLGhbXDjjUD6PS2VlN-68" value="Replicas" style="rounded=0;whiteSpace=wrap;html=1;fillColor=#FFFFCC;strokeColor=#36393d;" vertex="1" parent="1">
          <mxGeometry x="192.5" y="362.43" width="55" height="15.13" as="geometry" />
        </mxCell>
      </root>
    </mxGraphModel>
  </diagram>
</mxfile>
